<?xml version="1.0" encoding="utf-8"?>
<!-- Generator: Adobe Illustrator 22.0.1, SVG Export Plug-In . SVG Version: 6.00 Build 0)  -->
<svg version="1.1" id="Layer_1" xmlns="http://www.w3.org/2000/svg" xmlns:xlink="http://www.w3.org/1999/xlink" x="0px" y="0px"
	 viewBox="0 0 628.7 628.7" style="enable-background:new 0 0 628.7 628.7;" xml:space="preserve">
<style type="text/css">
	.st0{fill:#F15A2D;}
	.st1{fill:#FFFFFF;}
</style>
<rect x="0" y="0" class="st0" width="628.7" height="628.7"/>
<g>
	<path class="st1" d="M571.4,574.7c0-3.2,0.8-6.2,2.4-9c1.6-2.8,3.8-5,6.6-6.6c2.8-1.6,5.8-2.4,9-2.4c3.2,0,6.2,0.8,9,2.4
		c2.8,1.6,5,3.8,6.6,6.6c1.6,2.8,2.4,5.8,2.4,9c0,3.1-0.8,6.1-2.3,8.9c-1.5,2.8-3.7,5-6.5,6.6c-2.8,1.7-5.9,2.5-9.2,2.5
		c-3.3,0-6.4-0.8-9.1-2.5c-2.8-1.7-5-3.9-6.5-6.6C572.2,580.8,571.4,577.9,571.4,574.7z M573.9,574.7c0,2.8,0.7,5.3,2.1,7.7
		c1.4,2.4,3.3,4.3,5.7,5.7c2.4,1.4,5,2.1,7.7,2.1c2.8,0,5.4-0.7,7.7-2.1c2.4-1.4,4.3-3.3,5.7-5.6c1.4-2.4,2.1-5,2.1-7.8
		c0-2.8-0.7-5.4-2.1-7.7c-1.4-2.4-3.3-4.3-5.6-5.7c-2.4-1.4-5-2.1-7.8-2.1c-2.8,0-5.4,0.7-7.7,2.1c-2.4,1.4-4.3,3.3-5.7,5.6
		C574.6,569.3,573.9,571.9,573.9,574.7z M596.7,570.4c0,1.3-0.3,2.4-1,3.4c-0.7,1-1.6,1.7-2.9,2.2l5.7,9.5h-4l-5-8.5h-3.2v8.5h-3.5
		v-21.3h6.2c2.6,0,4.6,0.5,5.8,1.6C596.1,566.7,596.7,568.2,596.7,570.4z M586.3,574h2.6c1.3,0,2.3-0.3,3.1-1
		c0.8-0.7,1.2-1.5,1.2-2.5c0-1.2-0.3-2.1-1-2.6c-0.7-0.5-1.8-0.8-3.3-0.8h-2.5V574z"/>
</g>
<g>
	<path class="st1" d="M268.5,415.2c13.8,0,25-10.9,25-24.7c0-13.8-11.3-25-25-25c-13.8,0-24.7,11.3-24.7,25
		C243.8,404.3,254.8,415.2,268.5,415.2z"/>
	<path class="st1" d="M551.5,560c-9.4,0-12.5-5.3-12.5-13.1c0-17.5,15-55.3,15-80.7c0-25-14.7-35.3-34.7-35.3
		c-9.7,0-23.4,2.5-36.6,17.5l3.4-16.3h-45l-21.3,100.4c-15.6,17.8-30.6,31.6-55.3,31.6c-15,0-22.5-5-22.5-26.3
		c0-3.7,0.3-8.1,0.6-12.5c37.5-2.2,71.9-30,71.9-66c0-15.6-6.6-30-34.4-30c-64.1,0-84.4,75.4-84.4,111.3c0,0.5,0,1,0.1,1.6
		c-5.7,10.6-14.6,17.8-24.1,17.8c-8.8,0-12.8-2.8-12.8-11.6c0-2.8,0.3-5.9,1.3-10l22.5-106.3h-45l-21.3,100.4
		c-0.1,0.4-0.1,0.8-0.2,1.2c-14.4,18.5-36.1,29.8-59.8,29.8c-30,0-37.5-20-37.5-48.8c0-63.8,30.6-146,65-146
		c14.1,0,19.1,9.1,19.1,19.1c0,11.9-6.9,25-14.4,28.8c5.9,6.9,12.8,8.1,17.8,8.1c15.9,0,21.9-12.2,21.9-28.8
		c0-30.3-22.8-41.9-52.2-41.9c-81.9,0-109.1,106-109.1,162.6c0,56.3,22.2,76.9,68.5,76.9c23.7,0,58.1-11.3,78.5-39.2
		c0.6,25.2,15,36,33.4,36c12.9,0,34.1-4.1,51.4-29c6.4,20.3,23.1,29,45.9,29c31.2,0,53.9-16.3,70.8-36.6l-7.4,34.7h45l21.3-100.4
		c4.7-15.6,13.1-28.8,24.4-28.8c7.5,0,11.3,5.6,11.3,15.9c0,20-14.1,58.5-14.1,79.7c0,17.8,7.5,35.3,31.6,35.3
		c16.6,0,31.6-9.7,34.4-32.2C560,559.3,556.8,560,551.5,560z M382.7,445.8c5.9,0,7.8,5,7.8,12.8c0,26-21.3,50-45.3,51.6
		C351.4,479.3,366.7,445.8,382.7,445.8z"/>
</g>
</svg>
